<?xml version="1.0" standalone="no"?>
<!DOCTYPE svg PUBLIC "-//W3C//DTD SVG 20010904//EN"
 "http://www.w3.org/TR/2001/REC-SVG-20010904/DTD/svg10.dtd">
<svg version="1.0" xmlns="http://www.w3.org/2000/svg"
 width="1053.000000pt" height="1053.000000pt" viewBox="0 0 1053.000000 1053.000000"
 preserveAspectRatio="xMidYMid meet">
<metadata>
Created by potrace 1.14, written by Peter Selinger 2001-2017
</metadata>
<g transform="translate(0.000000,1053.000000) scale(0.100000,-0.100000)"
fill="#000000" stroke="none">
<path d="M923 7624 c-6 -16 27 -54 47 -54 6 0 13 -7 16 -15 4 -8 10 -15 14
-15 4 0 27 -20 51 -44 l44 -43 -57 -56 c-32 -31 -58 -53 -58 -50 0 4 -13 -6
-30 -22 -35 -33 -39 -55 -9 -55 11 0 18 4 15 8 -3 5 13 24 36 43 22 19 56 47
74 63 19 15 34 26 34 22 0 -3 12 7 26 21 l26 26 -38 33 c-22 18 -45 33 -51 34
-7 0 -13 7 -13 15 0 8 -6 15 -12 15 -16 1 -88 66 -88 80 0 16 -20 12 -27 -6z"/>
<path d="M1054 7625 c-3 -8 6 -26 20 -40 14 -14 26 -23 26 -20 0 3 12 -6 27
-20 15 -14 31 -25 35 -25 4 0 10 -9 13 -20 3 -11 11 -20 16 -20 6 0 17 -6 24
-14 11 -11 6 -21 -34 -60 -26 -25 -50 -43 -54 -40 -4 4 -7 0 -7 -9 0 -9 -6
-17 -13 -17 -16 0 -57 -41 -57 -57 0 -27 25 -15 80 37 74 70 110 100 120 100
5 0 10 5 12 12 3 7 9 8 18 3 8 -5 44 -8 80 -6 173 8 270 6 270 -4 0 -7 3 -7 8
0 4 7 154 11 412 13 486 3 757 9 770 17 6 3 10 3 10 -2 0 -4 85 -8 188 -8 103
0 225 -2 271 -5 46 -3 84 -3 86 0 3 4 299 4 1230 -3 149 -1 276 -6 284 -11 9
-6 12 -5 8 0 -3 6 233 10 629 11 348 1 638 4 643 7 5 4 12 0 14 -6 4 -10 6
-10 6 0 1 7 6 10 11 7 6 -3 90 -6 188 -7 286 0 708 0 832 1 596 6 1933 -3
1949 -13 6 -4 11 -3 11 1 0 5 11 8 24 8 21 -1 39 -13 103 -65 7 -6 16 -10 22
-10 5 0 11 -4 13 -9 4 -13 88 -81 99 -81 5 0 9 8 9 18 0 11 -12 22 -33 30 -19
7 -47 26 -63 43 -16 17 -44 47 -63 65 -19 19 -29 34 -23 34 6 0 33 21 59 48
26 26 51 46 55 44 5 -1 8 2 8 7 0 5 16 16 35 25 23 11 32 21 29 31 -7 17 -24
20 -24 5 0 -5 -7 -10 -15 -10 -8 0 -15 -5 -15 -11 0 -5 -4 -7 -10 -4 -5 3 -10
2 -10 -3 0 -5 -28 -29 -61 -53 -34 -24 -68 -51 -77 -59 -13 -13 -88 -15 -536
-16 -287 -1 -570 -2 -631 -2 -160 -1 -284 4 -291 10 -3 4 -18 3 -32 0 -26 -7
-478 -7 -1685 0 -329 2 -602 1 -606 -2 -5 -3 -95 -3 -201 0 -106 3 -194 2
-195 -1 -2 -3 -26 -3 -52 1 -68 8 -1137 5 -1151 -4 -7 -4 -12 -2 -12 4 0 7 -8
9 -22 4 -28 -9 -1549 -12 -1601 -3 -20 3 -39 4 -41 0 -2 -3 -77 -4 -166 -1
-89 3 -163 3 -165 0 -4 -7 -450 -4 -469 3 -8 3 -17 3 -20 -1 -2 -4 -25 -7 -51
-6 -35 1 -53 7 -74 28 -15 14 -32 26 -37 26 -6 0 -27 15 -47 34 -20 18 -38 32
-40 30 -1 -2 -11 10 -22 27 -22 32 -33 36 -41 14z"/>
<path d="M9546 7617 c-10 -7 -36 -29 -58 -49 -22 -21 -45 -38 -52 -38 -6 0
-19 -8 -27 -17 -9 -10 -28 -28 -42 -40 l-27 -23 30 -28 c16 -16 45 -37 65 -47
19 -11 35 -25 35 -32 0 -7 7 -13 15 -13 9 0 18 -7 21 -15 4 -8 10 -15 16 -15
5 0 16 -7 24 -15 20 -19 34 -19 34 0 0 8 -18 24 -39 35 -39 19 -91 64 -91 78
0 3 -15 19 -32 34 -18 15 -28 28 -22 28 12 0 54 34 54 43 0 9 50 57 50 49 0
-4 5 1 11 11 6 9 14 15 20 12 5 -4 9 -2 9 3 0 5 9 12 20 15 11 3 20 12 20 21
0 19 -8 19 -34 3z"/>
<path d="M2973 6990 c-2 -3 -22 -6 -43 -7 -37 -1 -70 -6 -115 -16 -11 -3 -40
-8 -65 -13 -50 -9 -58 -10 -65 -14 -6 -3 -9 -4 -60 -14 -22 -4 -44 -11 -50
-14 -5 -4 -12 -7 -15 -8 -48 -9 -212 -64 -224 -76 -6 -4 -16 -8 -22 -8 -14 0
-199 -89 -259 -125 -22 -13 -47 -27 -55 -31 -8 -4 -34 -20 -57 -36 -23 -15
-46 -28 -52 -28 -6 0 -11 -4 -11 -10 0 -5 -6 -10 -12 -10 -7 0 -24 -9 -38 -20
-28 -23 -85 -65 -124 -94 -97 -71 -235 -215 -294 -306 -19 -30 -38 -57 -41
-60 -3 -3 -7 -12 -9 -20 -2 -8 -8 -16 -13 -18 -5 -2 -9 -15 -9 -28 0 -13 -4
-24 -8 -24 -5 0 -9 -6 -10 -12 0 -7 -7 -33 -15 -58 -16 -50 -15 -130 3 -175 6
-16 12 -32 13 -35 1 -3 11 -16 22 -29 82 -97 180 -146 312 -155 37 -3 79 -8
93 -11 101 -24 303 23 342 79 4 6 8 7 8 3 0 -8 -36 -61 -60 -88 -8 -9 -73 -45
-145 -80 -258 -125 -497 -276 -576 -361 -9 -10 -19 -18 -23 -18 -23 0 -176
-185 -176 -213 0 -8 -7 -20 -15 -27 -9 -7 -14 -19 -11 -27 3 -7 2 -13 -2 -13
-24 0 -15 -187 10 -217 6 -7 7 -13 4 -13 -13 0 45 -68 72 -86 18 -12 51 -19
95 -21 38 -1 83 -6 100 -11 36 -10 144 -8 185 4 15 4 30 8 35 9 4 2 8 3 10 5
1 1 9 3 17 5 24 4 110 47 110 54 0 3 13 12 28 19 27 11 166 133 201 176 9 10
27 30 41 46 14 15 36 42 50 61 14 18 32 40 41 49 9 10 31 39 49 66 19 27 37
51 40 54 9 7 130 182 161 233 25 42 60 65 159 103 25 10 47 20 50 23 3 4 23
15 45 26 34 17 133 108 174 160 26 33 52 95 48 119 -3 29 -26 58 -38 50 -5 -3
-9 0 -9 5 0 8 -6 8 -17 2 -10 -5 -33 -14 -50 -20 -38 -12 -44 3 -15 35 9 11
46 62 81 114 36 52 79 114 95 136 17 23 37 50 43 60 43 64 149 210 155 212 5
2 8 8 8 14 0 8 38 63 71 101 4 5 17 3 30 -4 13 -7 54 -14 90 -15 37 -1 72 -5
79 -9 21 -13 110 -14 138 -2 47 21 122 69 122 78 0 5 5 9 11 9 10 0 -66 -118
-86 -132 -5 -4 -6 -8 -2 -8 5 0 -3 -15 -17 -32 -37 -47 -38 -47 -76 -108 -19
-30 -43 -64 -52 -74 -10 -11 -18 -26 -18 -33 0 -7 -4 -13 -10 -13 -5 0 -10 -6
-10 -14 0 -8 -3 -16 -8 -18 -4 -1 -23 -28 -42 -58 -19 -30 -37 -57 -40 -60 -3
-3 -19 -27 -34 -55 -16 -27 -34 -57 -41 -65 -37 -45 -153 -272 -161 -315 -19
-102 -11 -141 39 -194 41 -43 78 -59 158 -66 35 -4 89 -10 119 -15 60 -9 290
-6 330 4 14 3 43 8 65 11 22 2 47 6 55 8 8 2 32 7 53 12 20 4 40 11 43 16 3 5
9 7 14 4 5 -3 24 1 42 8 18 8 36 15 40 16 21 5 100 32 123 42 202 85 397 202
520 311 121 106 285 295 285 326 0 7 3 12 8 12 4 0 15 17 24 38 66 143 67 146
95 257 12 48 9 222 -4 270 -64 218 -271 375 -568 430 -16 3 -73 10 -125 15
-52 6 -115 13 -140 16 -43 5 -287 5 -341 0 -14 -1 -30 -6 -37 -10 -7 -4 -16
-5 -20 -2 -4 3 -28 0 -53 -5 -24 -6 -53 -12 -64 -15 -19 -3 -74 -16 -85 -19
-3 -1 -13 -5 -22 -9 -9 -4 -22 -9 -30 -10 -7 -2 -26 -8 -43 -15 -16 -7 -31 -9
-32 -4 -9 27 -46 74 -69 89 -16 11 -62 21 -118 27 -99 10 -295 15 -303 7z
m1332 -339 c3 -5 19 -12 35 -16 17 -4 30 -11 30 -16 0 -6 4 -7 10 -4 15 9 148
-129 156 -162 4 -15 9 -32 13 -38 6 -11 8 -22 14 -82 2 -24 1 -45 -2 -48 -3
-3 -7 -17 -9 -32 -5 -37 -63 -149 -112 -213 -65 -87 -169 -191 -255 -255 -22
-17 -42 -32 -45 -35 -16 -16 -100 -70 -109 -70 -6 0 -11 -4 -11 -9 0 -16 -245
-130 -354 -166 -108 -35 -168 -46 -136 -25 8 5 11 10 7 10 -4 0 -3 6 3 13 11
11 167 251 240 367 19 30 38 57 42 58 5 2 8 8 8 13 0 10 87 146 107 167 6 6
15 21 18 32 3 11 11 20 16 20 5 0 9 5 9 11 0 5 20 39 45 75 25 35 45 66 45 69
0 3 12 23 28 44 15 21 34 49 42 61 8 12 21 29 28 36 7 8 10 14 6 14 -4 0 2 10
12 23 29 32 85 123 89 144 2 10 4 19 4 21 2 6 20 1 26 -7z m-1487 -26 c-7 -9
-19 -22 -25 -30 -7 -7 -13 -18 -13 -24 0 -6 -4 -11 -10 -11 -5 0 -10 -7 -10
-15 0 -7 -6 -18 -13 -22 -7 -4 -23 -25 -37 -45 -14 -21 -28 -38 -32 -38 -5 0
-8 -7 -8 -15 0 -8 -4 -15 -10 -15 -5 0 -10 -5 -10 -10 0 -6 -17 -32 -37 -59
-21 -26 -45 -58 -53 -71 -8 -12 -21 -29 -28 -36 -7 -8 -11 -14 -7 -14 4 0 -1
-7 -9 -16 -15 -15 -196 -267 -245 -342 -13 -21 -28 -38 -33 -40 -4 -2 -8 -9
-8 -16 0 -7 -8 -20 -18 -29 -16 -15 -17 -12 -17 44 0 42 -5 63 -15 69 -15 9
-60 3 -70 -10 -9 -11 -54 -40 -63 -40 -5 0 -7 8 -5 18 8 42 -62 70 -95 37 -8
-8 -44 -30 -79 -50 -63 -34 -65 -35 -82 -16 -17 19 -21 101 -4 101 4 0 7 4 5
8 -8 29 160 222 255 294 17 13 38 30 47 38 26 23 89 70 95 70 3 0 31 18 62 40
32 22 63 40 70 40 7 0 14 4 16 9 10 28 427 208 486 211 10 0 10 -3 0 -15z
m896 -80 c-4 -8 -9 -15 -14 -15 -4 0 -11 -10 -17 -22 l-10 -23 -12 22 c-10 20
-8 24 16 37 36 19 44 20 37 1z"/>
<path d="M5725 6991 c-3 -6 -10 -9 -15 -6 -11 7 -37 -8 -155 -87 -55 -36 -112
-72 -127 -79 -16 -7 -28 -16 -28 -21 0 -4 -9 -8 -20 -8 -11 0 -20 -3 -20 -8 0
-4 -20 -16 -45 -27 -25 -11 -45 -24 -45 -30 0 -5 -6 -3 -13 5 -21 26 -78 30
-101 8 -8 -7 -23 -20 -36 -28 -37 -25 -70 -92 -70 -142 0 -40 6 -52 46 -97 25
-28 54 -51 64 -51 11 0 21 -4 25 -9 3 -6 13 -8 23 -6 90 19 85 20 77 -6 -4
-13 -11 -26 -15 -29 -3 -3 -46 -66 -95 -140 -48 -74 -103 -158 -122 -186 -18
-28 -33 -55 -33 -59 0 -5 -6 -16 -14 -24 -41 -46 -169 -304 -206 -415 -35
-101 -39 -220 -10 -279 34 -70 102 -109 185 -106 27 1 70 -4 93 -10 48 -13
100 -12 120 2 6 5 12 6 12 2 0 -4 7 -1 17 6 9 8 17 12 17 9 2 -8 136 62 136
71 0 5 5 9 11 9 6 0 36 19 67 43 86 65 87 65 34 -19 -202 -324 -321 -548 -330
-619 -10 -96 98 -215 197 -217 21 0 44 2 49 6 5 3 25 0 43 -8 19 -8 55 -13 81
-12 51 2 73 20 129 106 9 14 25 35 35 47 27 30 44 52 84 103 19 25 38 47 42
48 5 2 8 8 8 13 0 6 11 22 25 37 46 49 41 105 -10 118 -14 3 -25 9 -25 13 0 3
48 88 108 187 l107 182 23 -37 c44 -69 120 -101 295 -123 198 -24 377 -10 487
38 69 30 86 39 148 78 l63 39 102 -27 c56 -15 109 -30 117 -33 20 -8 18 -8
145 -33 61 -12 117 -23 125 -25 9 -2 47 -6 85 -9 39 -4 77 -9 86 -12 49 -14
302 -20 374 -9 76 13 145 55 145 88 0 6 3 7 7 4 3 -4 16 9 27 28 l21 35 37
-30 c59 -49 135 -79 213 -84 39 -3 90 -9 115 -13 58 -11 146 -6 243 13 76 14
284 96 298 117 3 5 9 8 12 8 13 -1 107 62 107 72 0 6 3 8 6 4 4 -3 12 -1 20 6
7 7 29 26 50 42 20 17 62 56 93 89 83 87 92 96 84 96 -3 0 1 8 9 18 23 26 39
97 42 184 1 21 5 38 9 38 5 0 5 6 0 13 -4 6 -8 17 -8 22 -3 27 -20 44 -52 50
-28 5 -39 2 -54 -13 -10 -11 -16 -21 -15 -23 2 -2 -5 -13 -15 -23 -19 -19 -19
-19 -19 3 0 12 -5 31 -11 42 -21 39 -92 46 -104 10 -6 -21 -55 -72 -121 -128
-27 -23 -59 -51 -72 -61 -12 -11 -38 -30 -57 -43 -19 -13 -35 -27 -35 -31 0
-5 -6 -8 -14 -8 -8 0 -16 -3 -18 -8 -5 -12 -137 -96 -203 -130 -130 -65 -198
-75 -204 -30 -7 54 -1 193 9 193 1 0 3 8 6 18 2 9 6 25 8 35 3 9 5 19 6 22 1
3 2 8 1 13 0 4 3 7 9 7 5 0 10 9 10 20 0 11 5 20 12 20 6 0 9 3 5 6 -6 6 31
79 78 154 12 19 23 38 24 43 1 7 10 17 61 74 14 15 25 30 24 33 0 6 1 7 54 69
43 51 137 142 159 154 12 7 13 5 5 -10 -20 -39 -22 -84 -5 -116 33 -66 91 -98
176 -98 34 -1 69 -5 79 -10 36 -19 122 -12 179 15 98 46 219 135 288 210 20
21 48 50 62 65 14 14 39 46 55 71 16 25 32 47 35 50 7 5 50 96 57 120 12 39 4
138 -13 166 -52 84 -142 133 -255 138 -43 2 -84 7 -89 11 -13 7 -146 8 -181 0
-14 -3 -41 -7 -60 -10 -107 -14 -350 -113 -454 -184 -24 -17 -49 -31 -54 -31
-6 0 -12 -3 -14 -8 -1 -4 -32 -30 -68 -56 -82 -62 -102 -80 -214 -192 -103
-103 -121 -123 -189 -214 -27 -36 -55 -73 -63 -82 -7 -10 -11 -18 -7 -18 3 0
-1 -8 -10 -18 -20 -22 -110 -202 -110 -219 0 -7 -4 -13 -9 -13 -5 0 -6 -4 -3
-10 3 -5 1 -10 -5 -10 -6 0 -8 -4 -5 -10 3 -5 0 -20 -6 -32 -7 -13 -14 -30
-15 -38 -1 -8 -5 -28 -9 -45 -4 -16 -9 -41 -10 -55 -2 -14 -4 -25 -5 -25 -2 0
-3 -46 -4 -102 -1 -60 2 -103 8 -103 5 0 7 -3 3 -6 -3 -4 0 -19 8 -33 13 -27
5 -65 -9 -42 -4 6 -4 11 -1 11 4 0 0 7 -9 15 -19 19 -43 19 -97 -1 -28 -10
-75 -16 -129 -16 -71 1 -145 7 -145 12 0 1 -11 3 -25 5 -101 14 -467 98 -479
110 -3 4 2 12 12 19 9 7 17 16 17 20 0 7 65 102 88 129 8 9 12 17 8 17 -4 0 2
10 14 22 11 12 20 25 20 28 0 4 11 20 24 35 14 16 23 32 20 37 -3 4 -1 8 4 8
5 0 17 16 28 35 10 19 22 35 26 35 5 0 8 6 8 13 0 7 9 23 20 35 11 12 20 24
20 28 0 3 14 24 31 45 17 21 27 39 23 39 -4 0 1 7 12 15 10 8 15 15 10 15 -5
0 1 8 12 19 12 10 22 23 22 30 0 6 5 11 10 11 6 0 10 7 10 15 0 8 4 15 8 15 5
0 14 10 21 23 11 20 19 22 86 21 40 0 87 -7 104 -14 53 -21 130 -5 216 47 17
10 32 20 35 23 3 3 30 23 60 45 30 21 88 73 128 115 90 92 94 96 118 140 10
19 22 37 25 40 3 3 9 14 13 25 47 124 -2 261 -108 299 -99 36 -383 40 -446 6
-10 -5 -20 -6 -24 -3 -3 3 -6 0 -6 -7 0 -7 -3 -11 -6 -7 -3 3 -36 -10 -72 -30
-98 -53 -124 -71 -214 -155 -22 -21 -44 -38 -48 -38 -5 0 -10 -4 -12 -9 -1 -6
-30 -38 -64 -73 -33 -35 -75 -83 -92 -107 -18 -24 -32 -41 -32 -37 0 4 -29
-32 -65 -81 -36 -48 -72 -96 -80 -106 -8 -9 -15 -22 -15 -27 0 -6 -4 -10 -10
-10 -5 0 -10 -7 -10 -15 0 -8 -5 -15 -12 -15 -6 0 -9 -3 -5 -6 5 -5 -10 -27
-40 -59 -7 -8 -13 -20 -13 -27 0 -8 -9 -20 -20 -28 -11 -8 -20 -19 -20 -24 0
-8 -70 -123 -93 -151 -4 -5 -33 -48 -63 -95 -31 -47 -60 -86 -65 -88 -5 -2 -9
-9 -9 -16 0 -6 -12 -25 -27 -42 -16 -17 -33 -40 -39 -50 -13 -21 -56 -23 -194
-9 -129 13 -284 7 -359 -15 -27 -8 -30 -7 -22 8 8 14 208 349 241 402 5 8 59
98 121 200 62 102 127 208 145 237 19 28 34 54 34 56 0 3 22 41 48 84 78 128
96 166 89 195 -10 40 -65 68 -144 73 -37 3 -105 8 -151 11 -111 8 -162 -1
-198 -34 -17 -15 -35 -35 -40 -44 -12 -21 -103 -125 -234 -268 -183 -199 -260
-280 -464 -485 -152 -154 -230 -226 -215 -200 51 89 353 545 539 816 84 121
87 172 15 231 -43 35 -146 64 -173 49 -13 -7 -61 3 -113 24 -10 3 -20 1 -24
-4z m3744 -398 c-31 -38 -120 -123 -129 -123 -6 0 -10 -3 -10 -8 0 -4 -30 -27
-67 -52 -38 -24 -73 -50 -79 -57 -10 -11 -13 -11 -18 2 -4 11 -2 14 7 10 6 -4
3 1 -7 9 -11 9 -24 16 -29 16 -24 0 166 130 277 189 68 36 73 37 55 14z"/>
<path d="M920 4378 c0 -19 10 -30 63 -68 82 -60 122 -101 106 -110 -8 -5 -29
-21 -46 -37 -48 -43 -67 -58 -70 -56 -1 1 -14 -9 -29 -22 -17 -16 -24 -30 -20
-41 5 -13 12 -11 44 17 20 17 41 38 45 46 4 7 15 13 23 13 8 0 12 4 9 10 -3 5
0 7 8 4 8 -3 26 5 39 19 13 13 32 28 43 34 17 10 16 14 -21 49 -22 22 -51 46
-63 54 -13 8 -43 34 -67 58 -45 43 -64 52 -64 30z"/>
<path d="M1066 4367 c-16 -12 -13 -17 37 -60 30 -26 58 -47 62 -47 4 0 22 -15
41 -34 37 -37 38 -35 -17 -81 -14 -12 -45 -35 -70 -52 -61 -42 -74 -59 -53
-67 16 -6 88 47 78 57 -3 3 4 8 16 12 12 4 30 14 39 23 51 48 97 76 105 64 2
-4 62 -6 133 -4 167 4 335 2 345 -4 4 -3 8 -2 8 3 0 4 151 8 335 8 184 0 335
3 335 7 0 11 -135 13 -674 12 -359 -1 -514 2 -523 10 -8 6 -22 18 -31 26 -9 9
-33 28 -52 42 -55 41 -99 85 -93 92 11 11 -3 6 -21 -7z"/>
<path d="M9549 4364 c-27 -28 -97 -89 -103 -89 -3 0 -29 -19 -56 -43 l-50 -43
34 -33 c19 -18 46 -38 61 -44 14 -7 28 -19 31 -27 4 -8 12 -15 20 -15 7 0 17
-6 21 -14 9 -14 46 -36 62 -36 24 0 10 40 -19 55 -16 8 -33 15 -36 14 -4 0
-14 11 -24 25 -9 15 -20 23 -24 19 -4 -4 -9 3 -13 15 -3 12 -9 22 -13 22 -5 0
-16 7 -24 16 -14 14 -11 20 36 65 29 28 70 60 90 70 21 11 38 26 38 34 0 21
-15 26 -31 9z"/>
<path d="M9413 4358 c-13 -6 -23 -14 -23 -18 0 -10 -106 -90 -120 -90 -5 0
-10 -7 -10 -17 0 -9 -3 -14 -6 -10 -4 3 -12 0 -19 -6 -9 -10 -71 -13 -239 -12
-124 0 -226 -3 -226 -7 0 -4 -10 -4 -22 0 -13 4 -144 7 -293 6 -375 -2 -405
-3 -405 -11 0 -7 387 -12 1059 -14 l123 -1 47 -35 c25 -19 64 -49 85 -66 66
-53 70 -56 89 -57 14 0 15 3 5 19 -7 11 -21 24 -32 30 -39 20 -60 36 -113 88
-54 52 -54 52 -28 59 14 3 24 8 21 11 -7 8 27 43 42 43 7 0 11 4 8 9 -3 5 19
23 49 40 31 18 53 36 50 41 -7 12 -14 12 -42 -2z"/>
<path d="M4247 4213 c-3 -5 -123 -8 -266 -8 -144 0 -261 -3 -261 -7 0 -8 117
-11 395 -10 180 1 241 1 472 -1 90 -1 163 1 163 4 0 3 19 3 43 0 32 -5 317 -5
382 0 6 0 19 0 30 -1 11 -1 56 -1 100 -1 44 0 161 -1 260 -3 99 -1 190 2 203
6 12 4 22 4 22 0 0 -4 90 -7 200 -7 110 0 200 3 200 7 0 4 12 4 28 1 41 -8
433 -10 465 -1 16 4 27 3 27 -3 0 -6 6 -7 13 -2 6 4 20 6 30 5 9 -2 17 1 17 5
0 5 -123 9 -272 10 -150 1 -328 3 -395 4 -67 1 -125 -1 -130 -4 -5 -3 -15 -2
-23 3 -7 4 -24 4 -37 -1 -12 -5 -23 -5 -23 -1 0 4 -21 6 -47 5 -51 -2 -119 -3
-143 -3 -8 0 -201 -1 -428 -3 -228 -1 -416 1 -418 5 -3 4 -14 4 -26 -1 -12 -4
-38 -5 -59 -1 -21 4 -43 4 -50 -1 -7 -4 -17 -5 -23 -2 -9 6 -63 6 -139 0 -21
-1 -43 1 -49 4 -6 4 -22 3 -34 -1 -13 -5 -26 -6 -28 -1 -6 8 -145 6 -153 -3
-3 -3 -14 -1 -24 4 -10 6 -20 7 -22 3z"/>
<path d="M2649 4205 c-3 -2 -44 -5 -92 -6 -48 -1 -87 -5 -87 -9 0 -10 173 0
185 11 5 5 7 9 4 9 -3 0 -8 -2 -10 -5z"/>
<path d="M2695 4200 c-3 -5 -1 -10 4 -10 6 0 11 5 11 10 0 6 -2 10 -4 10 -3 0
-8 -4 -11 -10z"/>
<path d="M2727 4199 c7 -7 15 -10 18 -7 3 3 -2 9 -12 12 -14 6 -15 5 -6 -5z"/>
<path d="M2768 4203 c6 -2 18 -2 25 0 6 3 1 5 -13 5 -14 0 -19 -2 -12 -5z"/>
<path d="M2810 4206 c0 -2 7 -7 16 -10 8 -3 12 -2 9 4 -6 10 -25 14 -25 6z"/>
<path d="M2853 4204 c3 -4 22 -8 43 -10 20 -2 34 -1 31 2 -3 4 -22 8 -43 10
-20 2 -34 1 -31 -2z"/>
<path d="M3025 4200 c-16 -7 -17 -9 -3 -9 9 -1 20 4 23 9 7 11 7 11 -20 0z"/>
<path d="M3070 4200 c-8 -5 -12 -12 -9 -15 4 -3 12 1 19 10 14 17 11 19 -10 5z"/>
<path d="M3105 4200 c-3 -5 -1 -11 4 -14 5 -4 12 -2 16 4 3 5 18 7 33 4 15 -4
24 -4 21 0 -10 11 -68 15 -74 6z"/>
<path d="M3216 4202 c-9 -15 -16 -14 122 -15 63 -1 119 1 125 6 7 4 -43 6
-111 5 -71 -2 -123 1 -125 7 -2 5 -7 4 -11 -3z"/>
<path d="M3637 4203 c-4 -3 -7 -11 -7 -17 0 -6 5 -5 12 2 6 6 9 14 7 17 -3 3
-9 2 -12 -2z"/>
<path d="M3660 4199 c0 -4 11 -9 25 -11 15 -3 25 -1 25 6 0 6 -11 11 -25 11
-14 0 -25 -3 -25 -6z"/>
<path d="M6780 4200 c0 -5 5 -10 11 -10 5 0 7 5 4 10 -3 6 -8 10 -11 10 -2 0
-4 -4 -4 -10z"/>
<path d="M6813 4197 c2 -6 13 -11 25 -12 26 -2 20 11 -8 18 -13 3 -20 1 -17
-6z"/>
<path d="M6871 4203 c-1 -17 11 -22 34 -12 19 9 19 9 -2 5 -12 -2 -24 1 -27 8
-3 8 -5 8 -5 -1z"/>
<path d="M7353 4195 c-4 -5 -3 -7 2 -3 4 4 14 3 20 -2 9 -7 14 -7 18 3 6 15
-32 18 -40 2z"/>
<path d="M7430 4199 c0 -5 -5 -7 -12 -3 -7 4 -8 3 -4 -5 6 -9 11 -9 22 0 17
14 18 19 4 19 -5 0 -10 -5 -10 -11z"/>
<path d="M7470 4200 c-8 -5 -12 -12 -9 -15 4 -3 12 1 19 10 14 17 11 19 -10 5z"/>
<path d="M7587 4197 c4 -7 101 -2 110 6 2 3 -23 4 -56 3 -32 0 -57 -5 -54 -9z"/>
<path d="M7718 4203 c7 -3 16 -2 19 1 4 3 -2 6 -13 5 -11 0 -14 -3 -6 -6z"/>
<path d="M7758 4203 c7 -3 16 -2 19 1 4 3 -2 6 -13 5 -11 0 -14 -3 -6 -6z"/>
<path d="M7820 4206 c0 -2 7 -7 16 -10 8 -3 12 -2 9 4 -6 10 -25 14 -25 6z"/>
<path d="M7887 4199 c7 -7 15 -10 18 -7 3 3 -2 9 -12 12 -14 6 -15 5 -6 -5z"/>
<path d="M2975 4190 c4 -6 11 -8 16 -5 14 9 11 15 -7 15 -8 0 -12 -5 -9 -10z"/>
<path d="M3548 4193 c7 -3 16 -2 19 1 4 3 -2 6 -13 5 -11 0 -14 -3 -6 -6z"/>
<path d="M6938 4193 c6 -2 18 -2 25 0 6 3 1 5 -13 5 -14 0 -19 -2 -12 -5z"/>
<path d="M6988 4193 c7 -3 16 -2 19 1 4 3 -2 6 -13 5 -11 0 -14 -3 -6 -6z"/>
<path d="M7022 4194 c9 -8 318 -11 318 -3 0 4 -73 8 -162 9 -89 0 -159 -2
-156 -6z"/>
<path d="M7530 4196 c0 -2 11 -6 25 -8 13 -3 22 -1 19 3 -5 9 -44 13 -44 5z"/>
<path d="M7950 4192 c0 -9 80 -5 89 4 2 2 -17 4 -42 4 -26 0 -47 -4 -47 -8z"/>
<path d="M5945 3511 c-42 -18 -74 -82 -70 -138 2 -21 -15 -30 -48 -24 -21 4 2
-24 24 -29 24 -6 24 -7 24 -128 0 -104 -2 -123 -17 -134 -31 -22 -20 -28 47
-28 51 0 65 3 65 15 0 8 -8 15 -19 15 -17 0 -19 9 -18 128 l1 127 40 5 c43 5
66 33 25 30 -65 -6 -67 -4 -65 54 1 30 8 62 16 71 15 18 54 17 56 -2 1 -7 2
-18 3 -24 2 -20 46 -5 49 18 6 40 -60 65 -113 44z"/>
<path d="M8877 3509 c-9 -6 -28 -11 -42 -12 -13 -1 -25 -5 -25 -9 0 -5 0 -12
0 -17 0 -5 9 -7 20 -4 20 5 20 0 20 -196 0 -190 -1 -202 -20 -213 -34 -21 -23
-28 44 -28 67 0 94 14 55 28 -21 8 -21 14 -20 118 2 99 4 111 24 126 25 20 69
23 97 8 23 -12 30 -45 31 -140 1 -102 2 -97 -23 -120 l-22 -20 72 0 c57 0 72
3 72 15 0 8 -9 15 -19 15 -17 0 -19 8 -20 71 0 39 -3 75 -6 79 -3 5 -1 11 5
15 6 4 8 11 5 16 -4 5 -8 19 -10 31 -15 81 -87 110 -168 69 l-37 -19 0 99 c0
54 -3 99 -7 99 -5 0 -16 -5 -26 -11z"/>
<path d="M5593 3493 c-19 -7 -16 -62 3 -70 38 -14 67 32 39 61 -17 17 -22 18
-42 9z"/>
<path d="M7080 3489 c-81 -15 -129 -54 -165 -132 -42 -90 -21 -216 44 -275 61
-53 151 -72 224 -47 41 14 107 61 107 76 0 15 -26 11 -41 -7 -22 -27 -71 -46
-120 -47 -121 -2 -201 137 -161 279 16 56 43 88 96 114 38 18 50 20 84 11 59
-16 94 -54 101 -111 0 -5 7 -10 15 -10 10 0 13 18 12 72 -1 60 -4 72 -18 74
-10 1 -18 -4 -18 -12 0 -10 -6 -11 -26 -4 -49 19 -99 26 -134 19z"/>
<path d="M9355 3484 c-18 -19 -19 -36 -3 -52 27 -27 76 5 58 38 -14 25 -37 32
-55 14z"/>
<path d="M142 3468 c3 -7 18 -13 34 -13 l29 -1 3 -182 c3 -191 -3 -222 -38
-222 -15 0 -20 7 -20 25 0 20 -5 25 -24 25 -40 0 -41 -43 -2 -72 17 -11 86 -1
105 16 30 27 39 79 40 238 2 150 8 178 37 178 8 0 14 5 14 10 0 6 -37 10 -91
10 -68 0 -90 -3 -87 -12z"/>
<path d="M2010 3466 c0 -9 8 -16 20 -16 22 0 23 -11 20 -259 -1 -114 -8 -141
-37 -141 -8 0 -11 -4 -8 -10 11 -17 206 -12 266 7 61 20 122 76 138 126 15 48
19 125 7 137 -5 5 -7 10 -2 10 4 0 -5 23 -20 50 -22 41 -38 55 -83 78 -50 24
-69 27 -178 31 -108 3 -123 1 -123 -13z m258 -35 c120 -65 116 -285 -8 -352
-14 -7 -53 -16 -87 -19 l-63 -5 0 185 c0 102 4 190 8 196 4 7 16 14 27 16 24
5 98 -8 123 -21z"/>
<path d="M3316 3464 c-4 -10 3 -14 19 -14 14 0 25 -6 25 -13 0 -7 31 -62 69
-123 l69 -109 -1 -70 c-2 -61 -5 -71 -24 -81 -35 -17 -16 -24 64 -24 60 0 73
3 73 16 0 11 -8 15 -27 12 l-27 -3 2 84 c1 80 3 86 54 179 36 65 64 103 85
117 18 11 32 25 33 31 0 17 -122 13 -128 -3 -2 -8 6 -13 23 -13 l26 0 -20 -29
c-12 -16 -21 -32 -21 -35 0 -3 -16 -35 -36 -71 l-37 -66 -39 58 c-62 93 -71
112 -57 129 6 8 20 14 30 14 11 0 16 5 13 13 -7 19 -161 20 -168 1z"/>
<path d="M5075 3472 c-12 -12 -3 -22 19 -22 23 0 25 -3 23 -45 -1 -25 1 -45 5
-45 4 0 3 -13 -2 -30 -5 -17 -5 -32 0 -35 5 -3 7 -12 4 -19 -9 -23 -9 -116 -1
-116 5 0 6 -4 2 -10 -3 -5 -6 -25 -7 -45 -1 -28 -7 -39 -25 -48 -12 -5 -23
-14 -23 -19 0 -4 73 -8 163 -8 l163 0 -1 63 c0 34 -4 63 -10 65 -5 1 -10 -1
-11 -5 0 -5 -4 -23 -8 -41 -11 -48 -36 -57 -151 -53 l-40 1 2 142 c1 79 2 165
2 191 1 40 5 50 21 54 12 3 19 11 17 17 -4 11 -131 18 -142 8z"/>
<path d="M1433 3428 c-6 -7 -13 -21 -16 -31 -4 -10 -20 -25 -37 -35 -33 -19
-34 -38 -2 -36 20 1 22 -4 22 -50 1 -187 4 -207 34 -233 21 -18 37 -23 60 -20
40 5 74 27 82 50 9 29 -4 33 -29 9 -59 -56 -86 -14 -86 133 l-1 110 52 0 c32
0 53 5 56 13 2 7 -6 12 -20 13 -88 3 -83 1 -86 47 -3 43 -12 52 -29 30z"/>
<path d="M10341 3370 c-25 -26 -34 -29 -50 -20 -48 25 -135 0 -167 -48 -33
-50 -15 -152 26 -152 10 0 6 -7 -11 -23 -37 -31 -43 -59 -21 -87 18 -22 18
-23 -5 -46 -66 -66 13 -139 144 -133 89 4 140 38 149 98 10 64 -36 97 -140
100 -84 3 -119 15 -114 39 2 13 17 18 68 23 74 6 107 20 134 56 25 34 27 76 6
117 -22 44 -10 70 24 55 33 -16 56 -1 45 29 -12 32 -51 28 -88 -8z m-76 -36
c23 -9 45 -58 45 -102 0 -29 -7 -46 -25 -64 -50 -51 -115 -4 -115 83 0 39 4
51 26 68 28 22 42 25 69 15z m47 -334 c95 -27 50 -111 -60 -113 -81 -1 -121
35 -101 92 11 30 13 31 67 31 32 0 74 -5 94 -10z"/>
<path d="M1040 3357 c-45 -11 -69 -42 -70 -88 0 -45 24 -68 113 -108 56 -25
67 -34 67 -54 0 -62 -92 -76 -137 -20 -13 15 -23 36 -23 46 0 10 -4 15 -10 12
-5 -3 -10 -31 -10 -61 0 -41 4 -54 15 -54 8 0 15 5 15 10 0 7 7 7 20 0 84 -45
194 5 186 83 -5 39 -36 69 -96 92 -64 25 -94 55 -85 85 18 57 105 46 125 -16
17 -51 36 -43 34 14 -1 26 -2 50 -3 55 -2 12 -31 8 -31 -4 0 -8 -4 -8 -12 -2
-20 16 -60 20 -98 10z"/>
<path d="M2708 3357 c-32 -7 -126 -77 -105 -77 4 0 1 -12 -6 -27 -20 -39 -14
-115 12 -157 42 -68 151 -94 216 -52 75 49 104 151 66 228 -12 24 -32 51 -45
60 -34 25 -95 36 -138 25z m73 -27 c18 -10 66 -90 54 -90 -3 0 -1 -9 5 -19 5
-11 6 -22 1 -25 -4 -3 -7 -20 -5 -38 6 -47 -37 -108 -74 -107 -48 3 -61 9 -82
45 -28 45 -34 136 -11 184 23 50 71 71 112 50z"/>
<path d="M3955 3362 c-86 -15 -144 -92 -139 -183 4 -87 59 -145 145 -154 125
-12 217 130 161 247 -29 60 -106 101 -167 90z m76 -48 c10 -9 22 -35 28 -59
34 -136 -24 -235 -113 -193 -79 38 -84 225 -6 265 28 15 67 9 91 -13z"/>
<path d="M6271 3354 c-44 -13 -64 -29 -95 -76 -23 -35 -23 -125 -1 -172 32
-68 130 -101 204 -70 57 24 92 64 56 64 -8 0 -15 -4 -15 -9 0 -14 -73 -39
-104 -35 -50 6 -81 48 -90 122 l-5 42 116 0 115 0 -7 38 c-14 77 -92 121 -174
96z m73 -25 c26 -12 49 -59 37 -75 -5 -8 -44 -10 -136 -5 l-25 1 19 33 c15 28
52 56 73 57 4 0 18 -5 32 -11z"/>
<path d="M7571 3358 c-52 -14 -78 -36 -102 -86 -46 -94 -15 -196 71 -234 140
-60 274 83 215 230 -28 68 -111 109 -184 90z m89 -48 c47 -51 54 -173 12 -229
-21 -29 -77 -39 -102 -18 -37 30 -52 70 -53 137 -1 55 3 71 22 96 41 52 81 57
121 14z"/>
<path d="M8040 3360 c-46 -8 -77 -26 -91 -51 -15 -29 -4 -49 27 -49 23 0 26 3
22 25 -7 35 33 61 75 48 33 -9 50 -45 44 -93 -3 -21 -10 -26 -50 -32 -120 -17
-180 -100 -117 -162 28 -28 109 -29 140 -1 19 17 23 18 30 4 11 -19 91 -20 98
-1 2 7 -5 12 -20 12 -23 0 -23 1 -23 125 0 112 -2 127 -20 145 -27 26 -71 38
-115 30z m78 -215 c-1 -63 -46 -97 -102 -76 -20 8 -26 17 -26 39 0 34 22 57
70 70 58 17 59 16 58 -33z"/>
<path d="M8500 3360 c-99 -22 -159 -142 -122 -240 24 -62 101 -106 166 -96 61
10 133 64 107 81 -5 2 -15 -2 -22 -11 -17 -21 -74 -44 -98 -39 -59 11 -94 65
-94 146 0 91 48 146 117 133 20 -3 37 -11 37 -18 1 -6 2 -22 3 -36 1 -18 7
-26 23 -28 47 -7 48 64 1 89 -31 17 -88 26 -118 19z"/>
<path d="M528 3354 c-6 -5 -32 -12 -55 -13 -7 -1 -13 -7 -13 -15 0 -9 7 -13
20 -11 16 3 20 -2 20 -23 1 -176 6 -212 33 -239 36 -36 95 -39 142 -7 27 18
35 20 35 9 0 -17 -1 -17 58 -20 29 -2 42 1 42 10 0 8 -10 15 -22 17 -22 3 -22
5 -21 151 1 148 1 149 -20 142 -12 -3 -35 -8 -51 -11 -46 -6 -51 -23 -7 -27
19 -1 20 -6 19 -109 -1 -99 -3 -110 -25 -130 -28 -26 -77 -28 -101 -4 -14 14
-17 38 -17 151 0 116 -2 135 -16 135 -9 0 -18 -3 -21 -6z"/>
<path d="M4355 3351 c-3 -6 -14 -8 -24 -6 -10 2 -24 -1 -32 -6 -12 -8 -12 -10
1 -18 8 -5 18 -7 22 -5 4 3 8 -38 8 -92 0 -53 5 -114 11 -135 20 -66 99 -86
168 -42 19 12 25 13 32 2 11 -18 99 -20 99 -2 0 7 -10 13 -23 13 l-23 0 2 150
c1 113 -1 150 -10 150 -7 0 -16 -3 -20 -7 -4 -5 -16 -9 -27 -9 -44 -3 -49 -4
-49 -13 0 -5 10 -11 23 -13 21 -3 22 -7 22 -113 l0 -109 -34 -23 c-22 -15 -42
-21 -55 -17 -46 14 -51 28 -54 169 -3 106 -7 135 -17 135 -8 0 -16 -4 -20 -9z"/>
<path d="M5615 3349 c-11 -4 -33 -8 -48 -8 -32 -1 -33 -22 -1 -31 17 -5 19
-15 18 -122 0 -111 -2 -118 -25 -137 l-24 -20 73 -1 c57 0 72 3 72 15 0 8 -9
15 -19 15 -18 0 -19 8 -18 141 1 77 0 144 -3 149 -3 4 -14 4 -25 -1z"/>
<path d="M9352 3346 c-47 -12 -60 -29 -24 -34 21 -3 22 -7 22 -123 0 -108 -2
-120 -20 -131 -34 -21 -23 -28 44 -28 67 0 94 14 55 28 -22 8 -22 13 -22 150
1 78 -2 144 -5 145 -4 2 -26 -1 -50 -7z"/>
<path d="M9645 3348 c-16 -6 -36 -12 -43 -14 -19 -5 -5 -24 17 -24 17 0 18
-10 17 -121 -1 -102 -4 -123 -19 -134 -28 -21 -20 -25 48 -25 51 0 65 3 65 15
0 8 -8 15 -18 15 -16 0 -18 11 -17 114 1 123 7 140 54 151 40 8 77 -9 88 -42
6 -15 9 -70 9 -121 -1 -87 -3 -95 -26 -113 l-25 -19 75 2 c43 2 74 7 73 13 -1
6 -10 11 -20 13 -16 2 -18 14 -17 110 0 59 -3 112 -7 117 -4 6 -7 12 -6 15 2
11 -19 38 -40 49 -30 15 -77 14 -120 -4 -19 -8 -37 -15 -39 -15 -2 0 -4 7 -4
15 0 17 -3 17 -45 3z"/>
</g>
</svg>
